<?xml version="1.0" encoding="UTF-8" standalone="no"?>
<!-- Created with Inkscape (http://www.inkscape.org/) -->

<svg
   xmlns:dc="http://purl.org/dc/elements/1.1/"
   xmlns:cc="http://creativecommons.org/ns#"
   xmlns:rdf="http://www.w3.org/1999/02/22-rdf-syntax-ns#"
   xmlns:svg="http://www.w3.org/2000/svg"
   xmlns="http://www.w3.org/2000/svg"
   version="1.1"
   width="96"
   height="96"
   id="svg2">
  <defs
     id="defs4" />
  <metadata
     id="metadata7">
    <rdf:RDF>
      <cc:Work
         rdf:about="">
        <dc:format>image/svg+xml</dc:format>
        <dc:type
           rdf:resource="http://purl.org/dc/dcmitype/StillImage" />
        <dc:title></dc:title>
      </cc:Work>
    </rdf:RDF>
  </metadata>
  <g
     transform="translate(-23.053572,24.727104)"
     id="layer1">
    <g id="on"
       transform="matrix(4,0,0,4,23.053572,-24.727104)"
       style="fill:#000000;opacity:0">
	<animate id="animation1"
		attributeName="opacity"
		values="0;1;1;0"
		dur="2s"
		begin="0s;animation9.end" />
      <path
         d="M 0,0 H 24 V 24 H 0 z"
         id="path3120"
         style="fill:none" />
      <path
         d="m 13,3 h -2 v 10 h 2 V 3 z m 4.83,2.17 -1.42,1.42 C 17.99,7.86 19,9.81 19,12 19,15.87 15.87,19 12,19 8.13,19 5,15.87 5,12 5,9.81 6.01,7.86 7.58,6.58 L 6.17,5.17 C 4.23,6.82 3,9.26 3,12 c 0,4.97 4.03,9 9,9 4.97,0 9,-4.03 9,-9 0,-2.74 -1.23,-5.18 -3.17,-6.83 z"
         id="path3122" />
    </g>
    <g id="connect"
       transform="matrix(4,0,0,4,23.053572,-24.727104)"
       style="fill:#000000;opacity:0">
	<animate id="animation2"
		attributeName="opacity"
		values="0;1;1;0"
		dur="2s"
		begin="animation1.end" />
      <path
         d="m 18,4 -4,4 h 3 v 7 c 0,1.1 -0.9,2 -2,2 -1.1,0 -2,-0.9 -2,-2 V 8 C 13,5.79 11.21,4 9,4 6.79,4 5,5.79 5,8 v 7 H 2 l 4,4 4,-4 H 7 V 8 C 7,6.9 7.9,6 9,6 c 1.1,0 2,0.9 2,2 v 7 c 0,2.21 1.79,4 4,4 2.21,0 4,-1.79 4,-4 V 8 h 3 L 18,4 z"
         id="path3168" />
      <path
         d="M 0,0 H 24 V 24 H 0 z"
         id="path3170"
         style="fill:none" />
    </g>
    <g id="minum"
       transform="matrix(4,0,0,4,23.053572,-24.727104)"
       style="fill:#000000;opacity:0">
	<animate id="animation3"
		attributeName="opacity"
		values="0;1"
		dur="1s"
		begin="animation2.end" />
	<animate id="animation4"
		attributeName="opacity"
		values="1;0"
		dur="0.1s"
		begin="animation3.end" />
      <path
         d="m 7,9 v 6 h 4 l 5,5 V 4 L 11,9 H 7 z"
         id="path3216" />
      <path
         d="M 0,0 H 24 V 24 H 0 z"
         id="path3218"
         style="fill:none" />
    </g>
    <g id="medium"
       transform="matrix(4,0,0,4,23.053572,-24.727104)"
       style="fill:#000000;opacity:0">
	<animate id="animation5"
		attributeName="opacity"
		values="0;1"
		dur="1s"
		begin="animation4.end" />
	<animate id="animation6"
		attributeName="opacity"
		values="1;0"
		dur="0.1s"
		begin="animation5.end" />
      <path
         d="M 18.5,12 C 18.5,10.23 17.48,8.71 16,7.97 v 8.05 C 17.48,15.29 18.5,13.77 18.5,12 z M 5,9 v 6 h 4 l 5,5 V 4 L 9,9 H 5 z"
         id="path3200" />
      <path
         d="M 0,0 H 24 V 24 H 0 z"
         id="path3202"
         style="fill:none" />
    </g>
    <g id="maximum"
       transform="matrix(4,0,0,4,23.053572,-24.727104)"
       style="fill:#000000;opacity:0">
	<animate id="animation7"
		attributeName="opacity"
		values="0;1"
		dur="1s"
		begin="animation6.end" />
	<animate id="animation8"
		attributeName="opacity"
		values="1;1;1;0"
		dur="1s"
		begin="animation7.end" />
      <path
         d="m 3,9 v 6 h 4 l 5,5 V 4 L 7,9 H 3 z m 13.5,3 C 16.5,10.23 15.48,8.71 14,7.97 v 8.05 C 15.48,15.29 16.5,13.77 16.5,12 z M 14,3.23 v 2.06 c 2.89,0.86 5,3.54 5,6.71 0,3.17 -2.11,5.85 -5,6.71 v 2.06 C 18.01,19.86 21,16.28 21,12 21,7.72 18.01,4.14 14,3.23 z"
         id="path3232" />
      <path
         d="M 0,0 H 24 V 24 H 0 z"
         id="path3234"
         style="fill:none" />
    </g>
    <g id="play"
       transform="matrix(4,0,0,4,23.053572,-24.727104)"
       style="fill:#000000;opacity:0">
	<animate id="animation9"
		attributeName="opacity"
		values="0;1;1;0"
		dur="2s"
		begin="animation8.end" />
      <path
         d="M 0,0 H 24 V 24 H 0 z"
         id="path3136"
         style="fill:none" />
      <path
         d="M 10,16.5 16,12 10,7.5 v 9 z M 12,2 C 6.48,2 2,6.48 2,12 2,17.52 6.48,22 12,22 17.52,22 22,17.52 22,12 22,6.48 17.52,2 12,2 z m 0,18 C 7.59,20 4,16.41 4,12 4,7.59 7.59,4 12,4 c 4.41,0 8,3.59 8,8 0,4.41 -3.59,8 -8,8 z"
         id="path3138" />
    </g>
  </g>
</svg>
